<mxfile host="app.diagrams.net" modified="2024-02-01T06:55:47.546Z" agent="Mozilla/5.0 (Windows NT 10.0; Win64; x64) AppleWebKit/537.36 (KHTML, like Gecko) Chrome/120.0.0.0 Safari/537.36 OPR/106.0.0.0" etag="tdUfJrkZrNZBLBsGGBQq" version="22.0.0" type="device">
  <diagram name="Page-1" id="NHSIrQckHUKwvIZLltLA">
    <mxGraphModel dx="1393" dy="878" grid="1" gridSize="10" guides="1" tooltips="1" connect="1" arrows="1" fold="1" page="1" pageScale="1" pageWidth="850" pageHeight="1100" math="0" shadow="0">
      <root>
        <mxCell id="0" />
        <mxCell id="1" parent="0" />
        <mxCell id="q4uFc4i6bxKqxNLfvr8e-24" style="edgeStyle=orthogonalEdgeStyle;rounded=0;orthogonalLoop=1;jettySize=auto;html=1;exitX=1;exitY=0.25;exitDx=0;exitDy=0;entryX=0;entryY=0.25;entryDx=0;entryDy=0;" edge="1" parent="1" source="q4uFc4i6bxKqxNLfvr8e-1" target="q4uFc4i6bxKqxNLfvr8e-4">
          <mxGeometry relative="1" as="geometry" />
        </mxCell>
        <mxCell id="q4uFc4i6bxKqxNLfvr8e-26" style="edgeStyle=orthogonalEdgeStyle;rounded=0;orthogonalLoop=1;jettySize=auto;html=1;exitX=0.5;exitY=1;exitDx=0;exitDy=0;entryX=0.5;entryY=0;entryDx=0;entryDy=0;" edge="1" parent="1" source="q4uFc4i6bxKqxNLfvr8e-1" target="q4uFc4i6bxKqxNLfvr8e-7">
          <mxGeometry relative="1" as="geometry" />
        </mxCell>
        <mxCell id="q4uFc4i6bxKqxNLfvr8e-1" value="Directive&lt;br&gt;(request|shutdown)" style="rounded=0;whiteSpace=wrap;html=1;" vertex="1" parent="1">
          <mxGeometry x="260" y="220" width="120" height="60" as="geometry" />
        </mxCell>
        <mxCell id="q4uFc4i6bxKqxNLfvr8e-20" style="edgeStyle=orthogonalEdgeStyle;rounded=0;orthogonalLoop=1;jettySize=auto;html=1;exitX=0.5;exitY=1;exitDx=0;exitDy=0;entryX=0.5;entryY=0;entryDx=0;entryDy=0;" edge="1" parent="1" source="q4uFc4i6bxKqxNLfvr8e-2" target="q4uFc4i6bxKqxNLfvr8e-1">
          <mxGeometry relative="1" as="geometry" />
        </mxCell>
        <mxCell id="q4uFc4i6bxKqxNLfvr8e-21" style="edgeStyle=orthogonalEdgeStyle;rounded=0;orthogonalLoop=1;jettySize=auto;html=1;exitX=1;exitY=0.25;exitDx=0;exitDy=0;entryX=0;entryY=0.25;entryDx=0;entryDy=0;" edge="1" parent="1" source="q4uFc4i6bxKqxNLfvr8e-2" target="q4uFc4i6bxKqxNLfvr8e-3">
          <mxGeometry relative="1" as="geometry" />
        </mxCell>
        <mxCell id="q4uFc4i6bxKqxNLfvr8e-2" value="Identification&lt;br&gt;(admin|client)" style="rounded=0;whiteSpace=wrap;html=1;" vertex="1" parent="1">
          <mxGeometry x="260" y="110" width="120" height="60" as="geometry" />
        </mxCell>
        <mxCell id="q4uFc4i6bxKqxNLfvr8e-22" style="edgeStyle=orthogonalEdgeStyle;rounded=0;orthogonalLoop=1;jettySize=auto;html=1;exitX=0;exitY=0.75;exitDx=0;exitDy=0;entryX=1;entryY=0.75;entryDx=0;entryDy=0;" edge="1" parent="1" source="q4uFc4i6bxKqxNLfvr8e-3" target="q4uFc4i6bxKqxNLfvr8e-2">
          <mxGeometry relative="1" as="geometry" />
        </mxCell>
        <mxCell id="q4uFc4i6bxKqxNLfvr8e-23" style="edgeStyle=orthogonalEdgeStyle;rounded=0;orthogonalLoop=1;jettySize=auto;html=1;exitX=0.5;exitY=1;exitDx=0;exitDy=0;entryX=0.5;entryY=0;entryDx=0;entryDy=0;" edge="1" parent="1" source="q4uFc4i6bxKqxNLfvr8e-3" target="q4uFc4i6bxKqxNLfvr8e-4">
          <mxGeometry relative="1" as="geometry" />
        </mxCell>
        <mxCell id="q4uFc4i6bxKqxNLfvr8e-3" value="Response:&lt;br&gt;OK|NOT OK" style="rounded=0;whiteSpace=wrap;html=1;" vertex="1" parent="1">
          <mxGeometry x="460" y="110" width="120" height="60" as="geometry" />
        </mxCell>
        <mxCell id="q4uFc4i6bxKqxNLfvr8e-25" style="edgeStyle=orthogonalEdgeStyle;rounded=0;orthogonalLoop=1;jettySize=auto;html=1;exitX=0;exitY=0.75;exitDx=0;exitDy=0;entryX=1;entryY=0.75;entryDx=0;entryDy=0;" edge="1" parent="1" source="q4uFc4i6bxKqxNLfvr8e-4" target="q4uFc4i6bxKqxNLfvr8e-1">
          <mxGeometry relative="1" as="geometry" />
        </mxCell>
        <mxCell id="q4uFc4i6bxKqxNLfvr8e-37" style="edgeStyle=orthogonalEdgeStyle;rounded=0;orthogonalLoop=1;jettySize=auto;html=1;exitX=0.5;exitY=1;exitDx=0;exitDy=0;entryX=0.5;entryY=0;entryDx=0;entryDy=0;" edge="1" parent="1" source="q4uFc4i6bxKqxNLfvr8e-4" target="q4uFc4i6bxKqxNLfvr8e-5">
          <mxGeometry relative="1" as="geometry" />
        </mxCell>
        <mxCell id="q4uFc4i6bxKqxNLfvr8e-4" value="Response:&lt;br&gt;OK" style="rounded=0;whiteSpace=wrap;html=1;" vertex="1" parent="1">
          <mxGeometry x="460" y="220" width="120" height="60" as="geometry" />
        </mxCell>
        <mxCell id="q4uFc4i6bxKqxNLfvr8e-28" style="edgeStyle=orthogonalEdgeStyle;rounded=0;orthogonalLoop=1;jettySize=auto;html=1;exitX=0;exitY=0.75;exitDx=0;exitDy=0;entryX=1;entryY=0.75;entryDx=0;entryDy=0;" edge="1" parent="1" source="q4uFc4i6bxKqxNLfvr8e-5" target="q4uFc4i6bxKqxNLfvr8e-7">
          <mxGeometry relative="1" as="geometry" />
        </mxCell>
        <mxCell id="q4uFc4i6bxKqxNLfvr8e-38" style="edgeStyle=orthogonalEdgeStyle;rounded=0;orthogonalLoop=1;jettySize=auto;html=1;exitX=0.5;exitY=1;exitDx=0;exitDy=0;entryX=0.5;entryY=0;entryDx=0;entryDy=0;" edge="1" parent="1" source="q4uFc4i6bxKqxNLfvr8e-5" target="q4uFc4i6bxKqxNLfvr8e-6">
          <mxGeometry relative="1" as="geometry" />
        </mxCell>
        <mxCell id="q4uFc4i6bxKqxNLfvr8e-5" value="Response:&lt;br&gt;OK" style="rounded=0;whiteSpace=wrap;html=1;" vertex="1" parent="1">
          <mxGeometry x="460" y="320" width="120" height="60" as="geometry" />
        </mxCell>
        <mxCell id="q4uFc4i6bxKqxNLfvr8e-31" style="edgeStyle=orthogonalEdgeStyle;rounded=0;orthogonalLoop=1;jettySize=auto;html=1;exitX=0;exitY=0.75;exitDx=0;exitDy=0;entryX=1;entryY=0.75;entryDx=0;entryDy=0;" edge="1" parent="1" source="q4uFc4i6bxKqxNLfvr8e-6" target="q4uFc4i6bxKqxNLfvr8e-8">
          <mxGeometry relative="1" as="geometry" />
        </mxCell>
        <mxCell id="q4uFc4i6bxKqxNLfvr8e-6" value="Response:&lt;br&gt;Received bitsize" style="rounded=0;whiteSpace=wrap;html=1;" vertex="1" parent="1">
          <mxGeometry x="460" y="430" width="120" height="60" as="geometry" />
        </mxCell>
        <mxCell id="q4uFc4i6bxKqxNLfvr8e-27" style="edgeStyle=orthogonalEdgeStyle;rounded=0;orthogonalLoop=1;jettySize=auto;html=1;exitX=1;exitY=0.25;exitDx=0;exitDy=0;entryX=0;entryY=0.25;entryDx=0;entryDy=0;" edge="1" parent="1" source="q4uFc4i6bxKqxNLfvr8e-7" target="q4uFc4i6bxKqxNLfvr8e-5">
          <mxGeometry relative="1" as="geometry" />
        </mxCell>
        <mxCell id="q4uFc4i6bxKqxNLfvr8e-29" style="edgeStyle=orthogonalEdgeStyle;rounded=0;orthogonalLoop=1;jettySize=auto;html=1;exitX=0.5;exitY=1;exitDx=0;exitDy=0;entryX=0.5;entryY=0;entryDx=0;entryDy=0;" edge="1" parent="1" source="q4uFc4i6bxKqxNLfvr8e-7" target="q4uFc4i6bxKqxNLfvr8e-8">
          <mxGeometry relative="1" as="geometry" />
        </mxCell>
        <mxCell id="q4uFc4i6bxKqxNLfvr8e-7" value="JSON bitsize" style="rounded=0;whiteSpace=wrap;html=1;" vertex="1" parent="1">
          <mxGeometry x="260" y="320" width="120" height="60" as="geometry" />
        </mxCell>
        <mxCell id="q4uFc4i6bxKqxNLfvr8e-30" style="edgeStyle=orthogonalEdgeStyle;rounded=0;orthogonalLoop=1;jettySize=auto;html=1;exitX=1;exitY=0.25;exitDx=0;exitDy=0;entryX=0;entryY=0.25;entryDx=0;entryDy=0;" edge="1" parent="1" source="q4uFc4i6bxKqxNLfvr8e-8" target="q4uFc4i6bxKqxNLfvr8e-6">
          <mxGeometry relative="1" as="geometry" />
        </mxCell>
        <mxCell id="q4uFc4i6bxKqxNLfvr8e-8" value="JSON (divided if too large)" style="rounded=0;whiteSpace=wrap;html=1;" vertex="1" parent="1">
          <mxGeometry x="260" y="430" width="120" height="60" as="geometry" />
        </mxCell>
        <mxCell id="q4uFc4i6bxKqxNLfvr8e-54" style="edgeStyle=orthogonalEdgeStyle;rounded=0;orthogonalLoop=1;jettySize=auto;html=1;exitX=1;exitY=0.25;exitDx=0;exitDy=0;entryX=0;entryY=0.25;entryDx=0;entryDy=0;" edge="1" parent="1" source="q4uFc4i6bxKqxNLfvr8e-9" target="q4uFc4i6bxKqxNLfvr8e-10">
          <mxGeometry relative="1" as="geometry" />
        </mxCell>
        <mxCell id="q4uFc4i6bxKqxNLfvr8e-9" value="Finish" style="rounded=0;whiteSpace=wrap;html=1;" vertex="1" parent="1">
          <mxGeometry x="80" y="650" width="120" height="60" as="geometry" />
        </mxCell>
        <mxCell id="q4uFc4i6bxKqxNLfvr8e-55" style="edgeStyle=orthogonalEdgeStyle;rounded=0;orthogonalLoop=1;jettySize=auto;html=1;exitX=0;exitY=0.75;exitDx=0;exitDy=0;entryX=1;entryY=0.75;entryDx=0;entryDy=0;" edge="1" parent="1" source="q4uFc4i6bxKqxNLfvr8e-10" target="q4uFc4i6bxKqxNLfvr8e-9">
          <mxGeometry relative="1" as="geometry" />
        </mxCell>
        <mxCell id="q4uFc4i6bxKqxNLfvr8e-10" value="Response:&lt;br&gt;Finish Confirmation" style="rounded=0;whiteSpace=wrap;html=1;" vertex="1" parent="1">
          <mxGeometry x="280" y="650" width="120" height="60" as="geometry" />
        </mxCell>
        <mxCell id="q4uFc4i6bxKqxNLfvr8e-42" style="edgeStyle=orthogonalEdgeStyle;rounded=0;orthogonalLoop=1;jettySize=auto;html=1;exitX=0;exitY=0.75;exitDx=0;exitDy=0;entryX=1;entryY=0.75;entryDx=0;entryDy=0;" edge="1" parent="1" source="q4uFc4i6bxKqxNLfvr8e-11" target="q4uFc4i6bxKqxNLfvr8e-13">
          <mxGeometry relative="1" as="geometry" />
        </mxCell>
        <mxCell id="q4uFc4i6bxKqxNLfvr8e-46" style="edgeStyle=orthogonalEdgeStyle;rounded=0;orthogonalLoop=1;jettySize=auto;html=1;exitX=0.5;exitY=1;exitDx=0;exitDy=0;entryX=0.5;entryY=0;entryDx=0;entryDy=0;" edge="1" parent="1" source="q4uFc4i6bxKqxNLfvr8e-11" target="q4uFc4i6bxKqxNLfvr8e-12">
          <mxGeometry relative="1" as="geometry" />
        </mxCell>
        <mxCell id="q4uFc4i6bxKqxNLfvr8e-11" value="Response:&lt;br&gt;OK" style="rounded=0;whiteSpace=wrap;html=1;" vertex="1" parent="1">
          <mxGeometry x="680" y="570" width="120" height="60" as="geometry" />
        </mxCell>
        <mxCell id="q4uFc4i6bxKqxNLfvr8e-44" style="edgeStyle=orthogonalEdgeStyle;rounded=0;orthogonalLoop=1;jettySize=auto;html=1;exitX=0;exitY=0.75;exitDx=0;exitDy=0;entryX=1;entryY=0.75;entryDx=0;entryDy=0;" edge="1" parent="1" source="q4uFc4i6bxKqxNLfvr8e-12" target="q4uFc4i6bxKqxNLfvr8e-14">
          <mxGeometry relative="1" as="geometry" />
        </mxCell>
        <mxCell id="q4uFc4i6bxKqxNLfvr8e-47" style="edgeStyle=orthogonalEdgeStyle;rounded=0;orthogonalLoop=1;jettySize=auto;html=1;exitX=0.5;exitY=1;exitDx=0;exitDy=0;entryX=0.5;entryY=0;entryDx=0;entryDy=0;" edge="1" parent="1" source="q4uFc4i6bxKqxNLfvr8e-12" target="q4uFc4i6bxKqxNLfvr8e-16">
          <mxGeometry relative="1" as="geometry" />
        </mxCell>
        <mxCell id="q4uFc4i6bxKqxNLfvr8e-12" value="Response:&lt;br&gt;Received bitsize" style="rounded=0;whiteSpace=wrap;html=1;" vertex="1" parent="1">
          <mxGeometry x="680" y="680" width="120" height="60" as="geometry" />
        </mxCell>
        <mxCell id="q4uFc4i6bxKqxNLfvr8e-41" style="edgeStyle=orthogonalEdgeStyle;rounded=0;orthogonalLoop=1;jettySize=auto;html=1;exitX=1;exitY=0.25;exitDx=0;exitDy=0;entryX=0;entryY=0.25;entryDx=0;entryDy=0;" edge="1" parent="1" source="q4uFc4i6bxKqxNLfvr8e-13" target="q4uFc4i6bxKqxNLfvr8e-11">
          <mxGeometry relative="1" as="geometry" />
        </mxCell>
        <mxCell id="q4uFc4i6bxKqxNLfvr8e-45" style="edgeStyle=orthogonalEdgeStyle;rounded=0;orthogonalLoop=1;jettySize=auto;html=1;exitX=0.5;exitY=1;exitDx=0;exitDy=0;entryX=0.5;entryY=0;entryDx=0;entryDy=0;" edge="1" parent="1" source="q4uFc4i6bxKqxNLfvr8e-13" target="q4uFc4i6bxKqxNLfvr8e-14">
          <mxGeometry relative="1" as="geometry" />
        </mxCell>
        <mxCell id="q4uFc4i6bxKqxNLfvr8e-13" value="JSON bitsize" style="rounded=0;whiteSpace=wrap;html=1;" vertex="1" parent="1">
          <mxGeometry x="480" y="570" width="120" height="60" as="geometry" />
        </mxCell>
        <mxCell id="q4uFc4i6bxKqxNLfvr8e-43" style="edgeStyle=orthogonalEdgeStyle;rounded=0;orthogonalLoop=1;jettySize=auto;html=1;exitX=1;exitY=0.25;exitDx=0;exitDy=0;entryX=0;entryY=0.25;entryDx=0;entryDy=0;" edge="1" parent="1" source="q4uFc4i6bxKqxNLfvr8e-14" target="q4uFc4i6bxKqxNLfvr8e-12">
          <mxGeometry relative="1" as="geometry" />
        </mxCell>
        <mxCell id="q4uFc4i6bxKqxNLfvr8e-48" style="edgeStyle=orthogonalEdgeStyle;rounded=0;orthogonalLoop=1;jettySize=auto;html=1;exitX=0.5;exitY=1;exitDx=0;exitDy=0;entryX=0.5;entryY=0;entryDx=0;entryDy=0;" edge="1" parent="1" source="q4uFc4i6bxKqxNLfvr8e-14" target="q4uFc4i6bxKqxNLfvr8e-15">
          <mxGeometry relative="1" as="geometry" />
        </mxCell>
        <mxCell id="q4uFc4i6bxKqxNLfvr8e-14" value="JSON (divided if too large)" style="rounded=0;whiteSpace=wrap;html=1;" vertex="1" parent="1">
          <mxGeometry x="480" y="680" width="120" height="60" as="geometry" />
        </mxCell>
        <mxCell id="q4uFc4i6bxKqxNLfvr8e-49" style="edgeStyle=orthogonalEdgeStyle;rounded=0;orthogonalLoop=1;jettySize=auto;html=1;exitX=1;exitY=0.25;exitDx=0;exitDy=0;entryX=0;entryY=0.25;entryDx=0;entryDy=0;" edge="1" parent="1" source="q4uFc4i6bxKqxNLfvr8e-15" target="q4uFc4i6bxKqxNLfvr8e-16">
          <mxGeometry relative="1" as="geometry" />
        </mxCell>
        <mxCell id="q4uFc4i6bxKqxNLfvr8e-15" value="Finish" style="rounded=0;whiteSpace=wrap;html=1;" vertex="1" parent="1">
          <mxGeometry x="480" y="790" width="120" height="60" as="geometry" />
        </mxCell>
        <mxCell id="q4uFc4i6bxKqxNLfvr8e-50" style="edgeStyle=orthogonalEdgeStyle;rounded=0;orthogonalLoop=1;jettySize=auto;html=1;exitX=0;exitY=0.75;exitDx=0;exitDy=0;entryX=1;entryY=0.75;entryDx=0;entryDy=0;" edge="1" parent="1" source="q4uFc4i6bxKqxNLfvr8e-16" target="q4uFc4i6bxKqxNLfvr8e-15">
          <mxGeometry relative="1" as="geometry" />
        </mxCell>
        <mxCell id="q4uFc4i6bxKqxNLfvr8e-16" value="Response:&lt;br&gt;Finish Confirmation" style="rounded=0;whiteSpace=wrap;html=1;" vertex="1" parent="1">
          <mxGeometry x="680" y="790" width="120" height="60" as="geometry" />
        </mxCell>
        <mxCell id="q4uFc4i6bxKqxNLfvr8e-17" value="" style="endArrow=none;html=1;rounded=0;exitX=0.5;exitY=1;exitDx=0;exitDy=0;" edge="1" parent="1" source="q4uFc4i6bxKqxNLfvr8e-8">
          <mxGeometry width="50" height="50" relative="1" as="geometry">
            <mxPoint x="400" y="480" as="sourcePoint" />
            <mxPoint x="420" y="520" as="targetPoint" />
          </mxGeometry>
        </mxCell>
        <mxCell id="q4uFc4i6bxKqxNLfvr8e-19" value="" style="endArrow=none;html=1;rounded=0;entryX=0.5;entryY=1;entryDx=0;entryDy=0;" edge="1" parent="1" target="q4uFc4i6bxKqxNLfvr8e-6">
          <mxGeometry width="50" height="50" relative="1" as="geometry">
            <mxPoint x="420" y="520" as="sourcePoint" />
            <mxPoint x="450" y="430" as="targetPoint" />
          </mxGeometry>
        </mxCell>
        <mxCell id="q4uFc4i6bxKqxNLfvr8e-32" value="" style="verticalLabelPosition=bottom;html=1;verticalAlign=top;strokeWidth=2;shape=mxgraph.lean_mapping.physical_pull;pointerEvents=1;" vertex="1" parent="1">
          <mxGeometry x="410" y="450" width="20" height="20" as="geometry" />
        </mxCell>
        <mxCell id="q4uFc4i6bxKqxNLfvr8e-33" value="" style="endArrow=classic;html=1;rounded=0;" edge="1" parent="1">
          <mxGeometry width="50" height="50" relative="1" as="geometry">
            <mxPoint x="420" y="520" as="sourcePoint" />
            <mxPoint x="640" y="540" as="targetPoint" />
          </mxGeometry>
        </mxCell>
        <mxCell id="q4uFc4i6bxKqxNLfvr8e-34" value="" style="endArrow=classic;html=1;rounded=0;" edge="1" parent="1">
          <mxGeometry width="50" height="50" relative="1" as="geometry">
            <mxPoint x="420" y="520" as="sourcePoint" />
            <mxPoint x="240" y="620" as="targetPoint" />
          </mxGeometry>
        </mxCell>
        <mxCell id="q4uFc4i6bxKqxNLfvr8e-35" value="" style="endArrow=classic;html=1;rounded=0;entryX=0.5;entryY=0;entryDx=0;entryDy=0;" edge="1" parent="1" target="q4uFc4i6bxKqxNLfvr8e-9">
          <mxGeometry width="50" height="50" relative="1" as="geometry">
            <mxPoint x="240" y="620" as="sourcePoint" />
            <mxPoint x="60" y="610" as="targetPoint" />
          </mxGeometry>
        </mxCell>
        <mxCell id="q4uFc4i6bxKqxNLfvr8e-36" value="" style="endArrow=classic;html=1;rounded=0;entryX=0.5;entryY=0;entryDx=0;entryDy=0;" edge="1" parent="1" target="q4uFc4i6bxKqxNLfvr8e-10">
          <mxGeometry width="50" height="50" relative="1" as="geometry">
            <mxPoint x="240" y="620" as="sourcePoint" />
            <mxPoint x="150" y="660" as="targetPoint" />
          </mxGeometry>
        </mxCell>
        <mxCell id="q4uFc4i6bxKqxNLfvr8e-39" value="" style="endArrow=classic;html=1;rounded=0;entryX=0.5;entryY=0;entryDx=0;entryDy=0;" edge="1" parent="1">
          <mxGeometry width="50" height="50" relative="1" as="geometry">
            <mxPoint x="640" y="540" as="sourcePoint" />
            <mxPoint x="740" y="570" as="targetPoint" />
          </mxGeometry>
        </mxCell>
        <mxCell id="q4uFc4i6bxKqxNLfvr8e-40" value="" style="endArrow=classic;html=1;rounded=0;entryX=0.5;entryY=0;entryDx=0;entryDy=0;" edge="1" parent="1" target="q4uFc4i6bxKqxNLfvr8e-13">
          <mxGeometry width="50" height="50" relative="1" as="geometry">
            <mxPoint x="630" y="540" as="sourcePoint" />
            <mxPoint x="750" y="580" as="targetPoint" />
          </mxGeometry>
        </mxCell>
        <mxCell id="q4uFc4i6bxKqxNLfvr8e-51" value="" style="verticalLabelPosition=bottom;html=1;verticalAlign=top;strokeWidth=2;shape=mxgraph.lean_mapping.physical_pull;pointerEvents=1;" vertex="1" parent="1">
          <mxGeometry x="630" y="700" width="20" height="20" as="geometry" />
        </mxCell>
        <mxCell id="q4uFc4i6bxKqxNLfvr8e-52" value="GET type" style="text;html=1;strokeColor=none;fillColor=none;align=center;verticalAlign=middle;whiteSpace=wrap;rounded=0;" vertex="1" parent="1">
          <mxGeometry x="460" y="530" width="60" height="30" as="geometry" />
        </mxCell>
        <mxCell id="q4uFc4i6bxKqxNLfvr8e-53" value="POST type" style="text;html=1;strokeColor=none;fillColor=none;align=center;verticalAlign=middle;whiteSpace=wrap;rounded=0;" vertex="1" parent="1">
          <mxGeometry x="330" y="570" width="70" height="30" as="geometry" />
        </mxCell>
      </root>
    </mxGraphModel>
  </diagram>
</mxfile>
